<svg xmlns="http://www.w3.org/2000/svg" xmlns:xlink="http://www.w3.org/1999/xlink" width="142" height="40" viewBox="0 0 142 40">
    <defs>
        <path id="nfndrp7vga" d="M0 40L141.674 40 141.674 0 0 0z"/>
    </defs>
    <g fill="none" fill-rule="evenodd">
        <g>
            <g transform="translate(-76.000000, -40.000000) translate(76.000000, 40.000000)">
                <path fill="#FFA801" d="M96.959 27.255c0-1.023.189-1.97.563-2.844.4-.898.923-1.671 1.573-2.32.673-.648 1.446-1.16 2.32-1.534.896-.4 1.846-.6 2.844-.6 1.021 0 1.971.2 2.846.6.896.374 1.67.886 2.32 1.534.648.649 1.16 1.422 1.534 2.32.4.874.599 1.82.599 2.844v7.86c0 .475-.162.874-.488 1.197-.324.324-.722.488-1.197.488-.474 0-.873-.164-1.197-.488-.326-.323-.487-.722-.487-1.197v-7.86c0-.549-.099-1.06-.3-1.533-.199-.475-.486-.886-.86-1.236-.349-.374-.762-.66-1.234-.86-.475-.2-.987-.3-1.536-.3s-1.061.1-1.536.3c-.472.2-.885.486-1.234.86-.349.35-.638.761-.861 1.236-.2.473-.299.984-.299 1.533v7.86c0 .475-.162.874-.487 1.197-.324.324-.723.488-1.196.488-.475 0-.876-.164-1.201-.488-.324-.323-.486-.722-.486-1.197v-7.86zM116.636 28.378v.263c.025.075.036.15.036.225.45-.275 1.011-.6 1.687-.973.698-.4 1.408-.811 2.132-1.237.75-.449 1.486-.884 2.208-1.31.724-.422 1.361-.784 1.91-1.083-.849-.626-1.822-.937-2.921-.937-.698 0-1.359.138-1.982.411-.6.251-1.136.612-1.61 1.087-.45.449-.81.984-1.086 1.609-.249.599-.374 1.246-.374 1.945m5.052-8.42c1.423 0 2.745.324 3.968.973 1.249.648 2.257 1.572 3.032 2.77.199.274.3.585.3.935 0 .299-.073.586-.226.86-.149.25-.347.451-.597.6-1.523.899-2.957 1.733-4.306 2.508-.574.323-1.148.661-1.721 1.01-.573.323-1.123.638-1.647.937-.499.298-.96.574-1.384.822-.4.224-.726.412-.974.56.45.476.974.85 1.573 1.125.623.25 1.284.375 1.982.375.851 0 1.649-.201 2.397-.6.748-.4 1.36-.948 1.833-1.648.374-.522.837-.784 1.385-.784.5 0 .898.174 1.197.523.326.35.488.737.488 1.16 0 .325-.101.65-.3.974-.775 1.174-1.783 2.097-3.032 2.77-1.223.648-2.545.971-3.968.971-1.146 0-2.233-.21-3.257-.635-1.022-.448-1.92-1.059-2.693-1.835-.775-.772-1.386-1.67-1.835-2.694-.423-1.023-.636-2.108-.636-3.257 0-1.172.213-2.257.636-3.256.45-1.023 1.06-1.92 1.835-2.694.773-.775 1.671-1.372 2.693-1.796 1.024-.451 2.111-.675 3.257-.675M139.99 19.96c.473 0 .873.16 1.196.485.325.324.488.724.488 1.199 0 .472-.163.872-.488 1.196-.323.325-.723.487-1.195.487h-4.231v7.597c0 .7.25 1.299.747 1.796.5.475 1.1.713 1.797.713.474 0 .876.16 1.199.486.324.324.488.724.488 1.2 0 .47-.164.871-.488 1.196-.323.323-.725.485-1.199.485-.822 0-1.597-.15-2.319-.447-.699-.326-1.323-.75-1.872-1.274-.525-.523-.949-1.134-1.272-1.834-.3-.724-.451-1.497-.451-2.321v-7.597h-1.384c-.475 0-.874-.162-1.198-.487-.324-.324-.487-.724-.487-1.196 0-.475.163-.875.487-1.2.324-.324.723-.485 1.198-.485h1.384V17.15c0-.473.164-.873.487-1.195.351-.326.75-.49 1.2-.49.473 0 .871.164 1.195.49.325.322.488.722.488 1.195v2.81h4.23z"/>
                <path fill="#003984" d="M10.668 19.96c.474 0 .874.16 1.199.485.323.324.486.724.486 1.199 0 .472-.163.872-.486 1.196-.325.325-.725.487-1.2.487H6.44v7.597c0 .7.249 1.299.748 1.796.5.475 1.099.713 1.796.713.475 0 .875.16 1.2.486.324.324.485.724.485 1.2 0 .47-.161.871-.486 1.196-.324.323-.724.485-1.199.485-.823 0-1.595-.15-2.32-.447-.697-.326-1.323-.75-1.87-1.274-.525-.523-.95-1.134-1.274-1.834-.3-.724-.45-1.497-.45-2.321v-7.597H1.686c-.475 0-.874-.162-1.2-.487C.164 22.516 0 22.116 0 21.644c0-.475.163-.875.487-1.2.325-.324.724-.485 1.199-.485h1.383V17.15c0-.473.164-.873.488-1.195.35-.326.747-.49 1.197-.49.474 0 .874.164 1.198.49.325.322.487.722.487 1.195v2.81h4.229zM51.586 35.119c0 .449-.175.848-.528 1.195-.321.326-.709.486-1.159.486-.522 0-.948-.197-1.273-.595l-5.461-6.4-.861.934v4.38c0 .472-.166.874-.487 1.195-.325.326-.723.486-1.2.486-.449 0-.848-.16-1.196-.486-.325-.32-.486-.723-.486-1.195V17.153c0-.476.16-.874.486-1.2.348-.325.747-.485 1.196-.485.477 0 .875.16 1.2.485.321.326.487.724.487 1.2V25.8l4.938-5.315c.325-.347.738-.522 1.237-.522.472 0 .87.175 1.196.522.324.321.49.697.49 1.124 0 .42-.151.81-.45 1.159l-4.233 4.567 5.69 6.698c.276.326.414.689.414 1.087M27.794 20.448c.326.32.486.723.486 1.196v7.857c0 1.004-.197 1.948-.601 2.845-.37.876-.883 1.65-1.533 2.324-.647.645-1.422 1.172-2.32 1.57-.874.378-1.823.56-2.845.56-.998 0-1.947-.182-2.844-.56-.876-.398-1.646-.925-2.318-1.57-.651-.675-1.173-1.448-1.577-2.324-.37-.897-.559-1.84-.559-2.845v-7.857c0-.473.16-.875.486-1.196.324-.325.724-.486 1.2-.486.472 0 .871.161 1.197.486.324.32.484.723.484 1.196v7.857c0 .551.101 1.063.303 1.54.225.472.51.884.857 1.233.352.348.766.637 1.237.86.476.202.985.3 1.534.3.55 0 1.063-.098 1.536-.3.476-.223.884-.512 1.232-.86.375-.349.664-.76.861-1.233.201-.477.302-.989.302-1.54v-7.857c0-.473.161-.875.487-1.196.324-.325.723-.486 1.195-.486.477 0 .875.161 1.2.486M37.076 20.595c.326.32.486.71.486 1.159 0 .472-.16.874-.486 1.196-.325.325-.723.49-1.195.49-.701 0-1.297.247-1.796.746-.477.472-.715 1.064-.715 1.76v9.168c0 .477-.16.874-.486 1.2-.326.326-.724.487-1.197.487-.449 0-.837-.161-1.162-.487-.322-.326-.487-.723-.487-1.2v-9.169c0-.795.152-1.548.45-2.244.325-.724.75-1.347 1.274-1.875.522-.52 1.135-.933 1.832-1.23.724-.326 1.484-.486 2.287-.486.472 0 .87.16 1.195.485M55.255 25.454c-.607-1.886-.936-3.899-.936-5.988 0-10.75 8.715-19.465 19.466-19.465 3.32 0 6.347.829 9.178 2.293 0 0 1.275 12.532-7.434 22.808 0 0-10.76 1.682-19.927.41l-.347-.058z"/>
                <path fill="#FFA801" d="M56.445 29.014c-.35-.621-.667-1.263-.95-1.922 0 0 10.876.934 18.065-.283 0 0-2.583 2.776-6.75 5.214 0 0-5.435-.806-10.21-2.948l-.155-.06zM76.057 26.435s5.235-.933 9.58-2.577c0 0-2.279 5.478-4.372 8.156 0 0-5.669 1.03-12.008.343 0 0 4.664-3.1 6.653-5.75l.147-.172zM87.522 6.193c1.706 7.457-1.268 15.718-1.268 15.718-4.02 1.729-8.674 2.68-8.674 2.68 7.285-9.554 6.634-21.312 6.634-21.312 1.187.802 2.285 1.734 3.275 2.773l.033.141zM92.663 17.987c-1.606 1.755-4.506 3.046-4.506 3.046 1.875-5.775 1.372-12.448 1.372-12.448 1.823 2.69 3.004 5.86 3.288 9.28l-.154.122zM90.544 28.514c-2.461 1.828-7.091 2.973-7.091 2.973 2.217-2.924 4.046-8.432 4.046-8.432 3.532-1.534 5.378-3.127 5.378-3.127-.07 3.075-.855 5.97-2.192 8.533l-.14.053zM78.487 38.187c2.559-2.557 4.045-4.823 4.045-4.823 3.631-.756 6.654-1.986 6.654-1.986-2.67 3.45-6.474 5.975-10.854 7.023l.155-.214zM62.886 35.678c1.876-.707 4.215-2.047 4.215-2.047 7.19 1.024 12.818.171 12.818.171-2.926 3.728-4.966 5.073-4.966 5.073-.507.04-1.02.06-1.538.06-3.944 0-7.614-1.173-10.678-3.189l.149-.068zM58.232 31.487c2.386.901 6.384 1.73 6.384 1.73-2.559 1.119-3.5 1.341-3.5 1.341-1.139-.927-2.166-1.982-3.07-3.14l.186.069zM74.282 13.434c.387-.083.695.144.69.503-.004.23-.134.459-.328.617l-2.269 1.78.88 2.04.026.072s.024.107.024.168c-.004.352-.317.706-.7.792-.17.039-.323.02-.443-.048l-2.001-1.115-2.052 1.94-.052.047c-.116.104-.26.183-.416.218-.391.089-.71-.129-.713-.482-.001-.099.015-.152.06-.276l.999-2.466-2.228-.866-.066-.025c-.178-.083-.293-.25-.296-.466-.005-.364.316-.731.715-.817l.078-.01 2.68-.389.725-2.57c.084-.297.366-.564.695-.632.343-.072.64.086.71.371l.599 2.29 2.663-.672.02-.004zM69.894 3.55c.253-.088.457-.03.455.132 0 .102-.084.221-.21.319l-1.49 1.104.588.807.02.028s.015.046.015.074c-.002.16-.208.365-.463.457-.114.04-.214.053-.295.038l-1.332-.24-1.371 1.167-.034.028c-.077.065-.174.121-.28.158-.258.093-.472.038-.472-.126 0-.044.011-.072.042-.134l.678-1.263-1.47-.094-.042-.002c-.114-.014-.191-.073-.191-.171 0-.166.214-.373.479-.466l.049-.014 1.766-.533.483-1.244c.056-.143.24-.298.455-.372.223-.077.419-.047.463.07l.396.937 1.748-.655.013-.004zM60.617 12.882c.036.108.03.248-.01.37l-.47 1.395.643.738.02.028s.028.044.037.072c.057.167.012.41-.104.543-.05.06-.106.09-.159.087l-.862-.031-.368 1.408-.007.034c-.024.078-.058.15-.105.205-.116.134-.259.11-.32-.054-.018-.046-.02-.073-.025-.143l-.077-1.392-.888.14-.025.004c-.075.006-.14-.044-.176-.143-.062-.169-.017-.417.101-.555l.025-.023.832-.838-.185-1.375c-.023-.158.027-.352.127-.466.102-.119.229-.119.299-.003l.586.919.786-.977c.121-.141.265-.113.325.057z"/>
            </g>
        </g>
    </g>
</svg>
